<svg width="57" height="58" viewBox="0 0 57 58" fill="none" xmlns="http://www.w3.org/2000/svg">
<g clip-path="url(#clip0_5502_2283)">
<path d="M30.3465 0.948251C30.4853 0.939796 30.6932 0.93296 30.8246 0.914062C30.979 1.08282 31.0612 1.32658 31.1499 1.54073C31.5177 1.76475 31.975 1.95273 32.0725 2.34566C32.2474 2.78739 32.4748 2.85819 32.9106 3.00044C32.9674 3.1206 33.0928 3.38871 33.1766 3.4782C33.4792 3.80162 33.9675 3.9106 34.0747 4.35116C34.2211 4.6821 34.3563 4.79858 34.7036 4.93167C34.7738 4.95827 34.8446 4.98318 34.916 5.00636C34.9661 5.11439 35.0895 5.37752 35.1638 5.4624C35.4568 5.79668 35.9727 5.90767 36.078 6.35449C36.2258 6.68575 36.3595 6.80131 36.7075 6.93534C36.7777 6.96206 36.8485 6.98717 36.9199 7.01055C36.9651 7.10651 37.0997 7.39001 37.1644 7.4636C37.4582 7.79791 37.9761 7.91052 38.0823 8.35923C38.2172 8.66048 38.4177 8.89672 38.7692 8.92617C38.9675 9.06038 39.0388 9.26528 39.1989 9.46221C39.4722 9.79809 39.9737 9.95011 40.0861 10.3632C40.2343 10.6935 40.3685 10.8092 40.7153 10.9432C40.7855 10.9701 40.8563 10.9953 40.9277 11.0188C40.9782 11.127 41.101 11.3884 41.1756 11.4736C41.4688 11.8087 41.9878 11.921 42.0914 12.3689C42.2328 12.7063 42.4124 12.8576 42.7702 12.9601L42.9746 13.0636C43.09 13.478 43.2021 13.5928 43.5338 13.8757C43.6245 13.9274 43.6608 13.9644 43.7575 13.9722C43.9776 14.2935 44.2921 14.7666 44.7167 14.8177L44.7472 14.8504C45.2103 15.3578 44.8844 15.5768 45.8169 15.9113C46.1136 16.5009 46.2435 16.5865 46.8345 16.9472C46.8963 17.1791 46.9517 17.4703 47.093 17.6562C47.7681 18.0233 47.7163 18.1007 48.178 18.6992C48.2273 18.7631 48.7087 18.9964 48.8266 19.0521C49.1042 19.9849 49.1425 19.5039 49.6354 20.0038C50.2649 20.6423 49.8826 20.6159 50.8309 21.0557C50.9053 21.315 50.9663 21.6162 51.2121 21.7293C51.7574 21.9802 51.8506 22.2961 52.1977 22.7158C52.251 22.7803 52.7192 23.0059 52.8343 23.0596C53.0605 23.8191 53.0777 23.5741 53.6431 24.0122C53.9696 24.2653 53.9621 24.6067 54.4233 24.8577C54.5593 24.9304 54.6974 24.9991 54.8374 25.0637C55.0296 25.6973 55.1398 25.8586 55.8184 25.9675C55.859 26.1467 55.9793 26.6239 55.987 26.7834C56.0555 27.4742 55.9698 28.2649 55.9603 28.9744C55.952 29.6091 56.0438 30.4514 55.9909 31.0627C55.9408 31.3344 55.8924 31.637 55.8306 31.9037C55.2858 32.2224 55.1648 32.2997 54.83 32.854C54.1611 33.1568 54.0925 33.2217 53.7996 33.8859C53.247 34.2522 53.1801 34.2975 52.8247 34.8558C52.1563 35.163 52.0893 35.2268 51.7961 35.8913C51.2148 36.2702 51.1727 36.3058 50.8117 36.877C50.0505 37.1765 50.0823 37.2162 49.8155 37.9985C49.5271 37.9977 49.1173 38.0428 48.8943 37.9097C48.784 37.782 48.8079 37.6128 48.8086 37.4407C48.7725 36.1374 48.8277 34.8188 48.8089 33.5136C48.7914 32.2897 48.9337 31.4498 48.3669 30.3274C48.2785 30.1738 48.1369 30.1366 47.9735 30.0693L47.9322 29.9441C47.2721 29.0531 45.5732 27.6283 44.7667 26.7323C44.1862 26.1349 43.7291 25.3504 43.156 24.7526C42.0097 23.5571 40.779 22.4426 39.6426 21.2337C39.2233 20.7876 38.811 20.305 38.32 19.9428C38.0638 19.8243 37.7855 19.6054 37.5507 19.6092C37.3458 19.7076 37.2656 19.8432 37.2465 20.072C36.9571 23.545 37.0614 27.2085 37.0613 30.6794L37.0579 47.6699C37.0588 48.1312 37.0879 48.5738 37.1005 49.0323C37.1173 49.6509 37.4212 50.0905 37.1914 50.661C37.0256 50.9602 36.7929 51.4553 36.6035 51.697C35.6038 52.0329 35.2398 52.7769 34.5115 53.4868C33.7365 54.242 32.9683 55.0003 32.2247 55.7869C31.9381 56.0975 31.0059 56.8367 30.8824 57.0176C30.499 57.0004 30.1301 56.9458 29.8815 56.6486C29.841 52.0466 29.8416 47.4444 29.8832 42.8426L29.8656 1.06286C30.0212 0.920258 30.1441 0.942384 30.3465 0.948251Z" fill="#EBC316"/>
<path d="M26.1191 0.995837C26.3649 0.994913 26.6836 1.00362 26.921 0.970215C27.0225 5.8542 26.9476 10.994 26.9461 15.8978L26.9449 42.3836L26.9472 52.4713C26.9473 53.2783 27.0325 56.3502 26.8546 56.9391C26.4944 56.9063 26.2153 56.9029 25.9186 56.697C25.865 56.5895 25.7158 56.5105 25.6145 56.4487C24.8468 55.9806 23.9403 54.9184 23.296 54.2634L21.2286 52.1947C19.3988 50.3647 17.5457 48.5378 15.7168 46.7039C15.028 46.0927 14.528 45.1146 13.8735 44.514C11.7133 42.5319 9.66673 40.4283 7.59136 38.3599L3.47562 34.2452C2.96597 33.7345 1.59564 32.1657 0.992599 32.0059C0.864505 31.2364 0.955487 28.9592 0.926631 28.0004L0.955243 26.9432C1.18147 25.8845 2.46546 25.1692 3.18485 24.3977C4.222 23.2855 5.17228 22.048 6.26154 20.9717C6.58456 20.6526 6.83689 20.6875 7.0002 20.1844C7.2881 19.7559 7.57365 19.8811 8.04223 19.9367C8.37527 22.2524 7.90341 24.7704 8.1844 27.1083C8.20516 27.2812 8.34661 27.635 8.41201 27.8164C8.52841 27.8441 8.92195 27.9306 9.01057 27.9684C8.99359 28.6549 9.39025 28.7746 9.95329 29.0643L9.99282 29.2122C10.0714 29.5049 10.2677 29.6903 10.529 29.8367C10.661 29.9093 10.7948 29.9787 10.9301 30.0449C10.9723 30.1813 11.0302 30.3891 11.0797 30.5159C11.3878 30.7257 11.636 30.8872 11.959 31.0729C12.1682 31.8198 12.3355 31.6142 12.8747 32.0573C12.9237 32.0976 13.0381 32.4947 13.1705 32.6569C14.7781 34.6257 16.5313 36.2584 18.3165 38.0374C18.548 38.3251 18.704 38.4181 19.0466 38.5589C19.2037 38.6192 19.2526 38.6487 19.4228 38.6144C19.594 38.5144 19.7052 38.253 19.8044 38.0689C19.7552 36.1079 19.8607 34.1742 19.8032 32.2759C19.9681 25.141 19.7016 17.8836 19.7968 10.7369C19.8096 9.77406 19.5512 8.77522 19.5399 7.72345C19.989 6.70725 20.4263 6.55785 21.1615 5.7997C22.2266 4.70147 23.3382 3.62501 24.4081 2.53135C24.9486 1.97892 25.6037 1.60486 26.1191 0.995837Z" fill="#FEFEFE"/>
<path d="M37.1913 50.6613C37.4211 50.0907 37.1172 49.6512 37.1004 49.0326C37.0878 48.5741 37.0587 48.1315 37.0578 47.6701L37.0612 30.6796C37.0613 27.2087 36.957 23.5453 37.2464 20.0722C37.2655 19.8435 37.3457 19.7078 37.5506 19.6094C37.7854 19.6056 38.0637 19.8246 38.3199 19.9431C38.0641 19.9343 37.5744 20.2414 37.4611 20.4448L37.4856 20.5191C37.5839 20.524 37.7274 20.5047 37.7794 20.6037C37.9876 21 37.9632 21.6368 37.975 22.0907C38.0382 24.5054 38.0115 26.9309 38.011 29.3465L38.0083 41.1248L38.012 47.0628C38.0124 47.5547 38.1066 50.2553 37.8278 50.5121C37.585 50.6473 37.4528 50.5747 37.1913 50.6613Z" fill="#EBC316"/>
<path d="M19.4931 7.88818C19.4041 10.3555 19.4691 13.0985 19.4694 15.5933L19.4644 29.935L19.4662 34.4987C19.4693 34.9408 19.5379 36.1902 19.4696 36.531C19.1217 36.9696 19.5866 38.4006 19.0504 38.559C18.7078 38.4181 18.5518 38.3251 18.3203 38.0375C18.5043 38.1382 18.5559 38.1844 18.7614 38.1444C18.9578 38.0145 19.0574 37.8677 19.0441 37.6237C18.9522 35.9372 18.9474 34.2535 18.9471 32.5666L18.9484 17.0695L18.9453 12.2733C18.9449 11.2905 18.953 10.3394 18.9889 9.35799C19.0251 8.37029 19.3137 8.60541 19.4869 7.91368L19.4931 7.88818Z" fill="#FEFEFE" fill-opacity="0.568627"/>
<path d="M19.5429 7.72363C19.5541 8.77541 19.8125 9.77424 19.7997 10.7371C19.7045 17.8838 19.9711 25.1411 19.8062 32.276C19.732 32.5631 19.743 33.8989 19.7187 34.3272L19.6512 33.7507C19.5736 34.6245 19.631 35.3894 19.6074 36.2565C19.6055 36.3288 19.5138 36.4678 19.4687 36.5312C19.537 36.1903 19.4684 34.941 19.4653 34.4989L19.4635 29.9352L19.4685 15.5934C19.4682 13.0986 19.4032 10.3557 19.4922 7.88834L19.5429 7.72363Z" fill="#FEFEFE" fill-opacity="0.8"/>
<path d="M6.96149 19.0397C7.35699 19.0365 8.73033 19.0043 9.04261 19.0588C9.04851 19.0395 8.99223 19.2313 8.99156 19.203C9.05847 21.9626 9.00186 24.7725 9.01316 27.5453C9.01411 27.7707 9.0843 27.6762 9.01349 27.9685C8.92488 27.9307 8.53133 27.8442 8.41494 27.8165C8.34953 27.6351 8.20809 27.2813 8.18733 27.1084C7.90634 24.7705 8.3782 22.2525 8.04516 19.9368C7.57658 19.8812 7.29102 19.756 7.00313 20.1845C6.97786 19.8018 6.94496 19.4229 6.96149 19.0397Z" fill="#FEFEFE" fill-opacity="0.0156863"/>
<path d="M48.067 30L48.1107 30.1436C48.1051 30.3862 48.0513 30.9498 48.1449 31.1113C48.3702 30.6643 48.1728 30.5653 48.5275 30.4397C49.128 31.7273 48.9771 32.6909 48.9958 34.095C49.0156 35.5924 48.9571 37.1052 48.9953 38.6003C48.9311 38.403 48.8875 38.0119 48.8561 37.7909C48.8048 38.1656 48.6857 38.5116 48.6103 38.905L48.53 38.9323L48.3596 38.7902C48.2959 38.8383 48.2869 38.8873 48.2556 38.9664L48.2425 39L48.1508 38.991C47.8685 37.9152 48.0688 33.263 48.0706 31.9036C48.0715 31.2039 47.9993 30.7097 48.067 30Z" fill="#EDC416"/>
<path d="M0 27.035C0.253349 27.0576 0.479809 27.0285 0.731821 27.0054C0.808326 27.4618 0.67098 27.4955 0.328603 27.8019C0.351933 28.481 0.165552 30.1637 0.515987 30.5778C0.677092 30.6441 0.610718 30.6434 0.765331 30.5882C0.947074 30.1583 0.63481 28.7298 0.833703 28.0307L0.928688 28.0005C0.957544 28.9593 0.866561 31.2365 0.994656 32.006L0.917394 31.9392C0.867135 31.7371 0.942543 31.6339 0.797978 31.4155C0.629839 31.252 0.246958 31.2164 0 31.1697V27.035Z" fill="#FEFEFE" fill-opacity="0.658824"/>
<path d="M55.9882 26.7837C56.1452 26.8796 56.3756 27.0113 56.5192 27.1144C56.6127 28.0056 56.8688 29.8093 56.409 30.6801C56.3534 30.7849 56.0967 30.8489 55.9921 31.0629C56.045 30.4516 55.9531 29.6094 55.9615 28.9746C55.9709 28.2652 56.0567 27.4745 55.9882 26.7837Z" fill="#EBC316"/>
<path d="M0.732972 27.0054L0.95845 26.9434L0.929839 28.0005L0.834854 28.0308C0.63596 28.7299 0.948225 30.1584 0.766481 30.5882C0.611869 30.6434 0.678243 30.6442 0.517138 30.5779C0.166703 30.1638 0.353084 28.481 0.329754 27.8019C0.672131 27.4955 0.809476 27.4619 0.732972 27.0054Z" fill="white" fill-opacity="0.721569"/>
<path d="M19.4661 36.5315C19.5111 36.4681 19.6028 36.3292 19.6048 36.2568C19.6284 35.3897 19.571 34.6248 19.6485 33.751L19.716 34.3275C19.7404 33.8993 19.7293 32.5634 19.8035 32.2764C19.861 34.1747 19.7555 36.1084 19.8047 38.0694C19.7055 38.2535 19.5943 38.5149 19.4231 38.6149C19.2529 38.6492 19.204 38.6197 19.0469 38.5594C19.5831 38.4011 19.1181 36.9701 19.4661 36.5315Z" fill="#FEFEFE" fill-opacity="0.839216"/>
<path d="M25.9201 56.6973C26.2167 56.9032 26.4958 56.9066 26.8561 56.9394C26.8619 57.24 26.9241 57.6825 26.7258 57.8907H25.9141C26.0558 57.8495 26.1963 57.8039 26.3353 57.7538L25.9921 57.7198C25.9013 57.5957 25.9177 56.8876 25.9201 56.6973Z" fill="#FEFEFE" fill-opacity="0.0117647"/>
<path d="M0 31.1699C0.246958 31.2166 0.629839 31.2523 0.797978 31.4158C0.942543 31.6342 0.867135 31.7374 0.917394 31.9394C0.44898 31.8093 0.491919 31.9911 0 31.594V31.1699Z" fill="white" fill-opacity="0.192157"/>
<path d="M47.9764 30.0693C48.1398 30.1366 48.2814 30.1739 48.3697 30.3275C48.035 30.437 48.2213 30.5233 48.0087 30.9129C47.9202 30.7721 47.9711 30.2809 47.9764 30.0693Z" fill="#EBC316"/>
</g>
<defs>
<clipPath id="clip0_5502_2283">
<rect width="57" height="57.8906" fill="white"/>
</clipPath>
</defs>
</svg>
